<?xml version="1.0" standalone="no"?>
<!DOCTYPE svg PUBLIC "-//W3C//DTD SVG 1.1//EN" "http://www.w3.org/Graphics/SVG/1.1/DTD/svg11.dtd" >
<svg xmlns="http://www.w3.org/2000/svg" xmlns:xlink="http://www.w3.org/1999/xlink" version="1.1">
<metadata>
Created by FontForge 20160407 at Sun May  8 19:46:20 2016
 By Jimmy Wärting
</metadata>
<defs>
<font id="Requiem" horiz-adv-x="1000" >
  <font-face 
    font-family="Requiem"
    font-weight="400"
    font-stretch="normal"
    units-per-em="2048"
    panose-1="2 0 5 3 0 2 0 0 0 4"
    ascent="1638"
    descent="-410"
    x-height="1004"
    cap-height="1404"
    bbox="-134 -404 1820 1812"
    underline-thickness="150"
    underline-position="-292"
    unicode-range="U+001D-E000"
  />
<missing-glyph horiz-adv-x="919" 
 />
    <glyph glyph-name=".notdef" horiz-adv-x="919" 
 />
    <glyph glyph-name=".null" horiz-adv-x="100" 
 />
    <glyph glyph-name=".null" horiz-adv-x="100" 
 />
    <glyph glyph-name="nonmarkingreturn" horiz-adv-x="608" 
 />
    <glyph glyph-name="space" unicode=" " horiz-adv-x="608" 
 />
    <glyph glyph-name="space" unicode="&#xa0;" horiz-adv-x="608" 
 />
    <glyph glyph-name="exclam" unicode="!" horiz-adv-x="333" 
d="M234 1404v-1014h-134v1014h134zM234 221v-225h-134v225h134z" />
    <glyph glyph-name="quotedbl" unicode="&#x22;" horiz-adv-x="531" 
d="M234 1412v-324h-134v324h134zM432 1412v-324h-134v324h134z" />
    <glyph glyph-name="numbersign" unicode="#" horiz-adv-x="1221" 
d="M295 457l99 466h-195v126h223l76 355h134l-76 -355h260l76 355h134l-76 -355h172v-126h-199l-100 -466h200v-126h-227l-72 -335h-134l72 335h-260l-72 -335h-134l72 335h-168v126h195zM528 923l-99 -466h260l99 466h-260z" />
    <glyph glyph-name="dollar" unicode="$" horiz-adv-x="1097" 
d="M474 1431v219h120v-217q192 -6 315 -61l-42 -119q-178 54 -322 54q-308 0 -308 -301q0 -176 371 -253q398 -61 398 -359q0 -391 -412 -416v-239h-120v238q-251 9 -383 89l54 121q182 -84 390 -84q337 0 337 291q0 196 -360 253q-409 71 -409 359q0 392 371 425z" />
    <glyph glyph-name="percent" unicode="%" horiz-adv-x="1500" 
d="M636 1298q91 -106 91 -253t-91 -253t-222 -106t-222.5 106t-91.5 253t91.5 253t222.5 106t222 -106zM414 1278q-72 0 -126 -67t-54 -166t54 -166t126 -67t125.5 67t53.5 166t-53.5 166t-125.5 67zM1271 1404l-886 -1408h-158l886 1408h158zM1306.5 608
q91.5 -106 91.5 -253t-91.5 -253t-222.5 -106t-222 106t-91 253t91 253t222 106t222.5 -106zM1084 588q-72 0 -125.5 -67t-53.5 -166t53.5 -166t125.5 -67t126 67t54 166t-54 166t-126 67z" />
    <glyph glyph-name="ampersand" unicode="&#x26;" horiz-adv-x="1329" 
d="M476 947q216 135 216 247q0 183 -180 183q-179 0 -179 -183q0 -95 143 -247zM234 405q0 -282 278 -282q186 0 276 182l-330 473q-224 -159 -224 -373zM867 187q-120 -190 -355 -190q-412 0 -412 408q0 272 261 457q-162 200 -162 332q0 309 313 309q314 0 314 -309
q0 -154 -253 -340l287 -427l233 386h157l-304 -507l206 -309h-158z" />
    <glyph glyph-name="quotesingle" unicode="'" horiz-adv-x="333" 
d="M234 1412v-224h-134v224h134z" />
    <glyph glyph-name="parenleft" unicode="(" horiz-adv-x="451" 
d="M451 1601q-216 -216 -216 -901t216 -901h-144q-207 206 -207 901t207 901h144z" />
    <glyph glyph-name="parenright" unicode=")" horiz-adv-x="451" 
d="M145 1601q207 -206 207 -901t-207 -901h-144q216 216 216 901t-216 901h144z" />
    <glyph glyph-name="asterisk" unicode="*" horiz-adv-x="701" 
d="M293 1262v148h134v-147l128 73l64 -109l-132 -77l132 -77l-64 -109l-128 73v-147h-134v148l-129 -74l-64 109l132 77l-132 77l64 109z" />
    <glyph glyph-name="plus" unicode="+" horiz-adv-x="925" 
d="M530 1009v-296h296v-126h-296v-296h-134v296h-296v126h296v296h134z" />
    <glyph glyph-name="comma" unicode="," horiz-adv-x="351" 
d="M252 211v-211q0 -104 -107 -211h-144q117 117 117 211v211h134z" />
    <glyph glyph-name="hyphen" unicode="-" horiz-adv-x="827" 
d="M728 713v-126h-628v126h628z" />
    <glyph glyph-name="hyphen" unicode="&#xad;" horiz-adv-x="827" 
d="M728 713v-126h-628v126h628z" />
    <glyph glyph-name="period" unicode="." horiz-adv-x="333" 
d="M234 212v-224h-134v224h134z" />
    <glyph glyph-name="slash" unicode="/" horiz-adv-x="633" 
d="M534 1601l-300 -1802h-134l300 1802h134z" />
    <glyph glyph-name="zero" unicode="0" horiz-adv-x="1121" 
d="M1022 700q0 -704 -461 -704t-461 704t461 704t461 -704zM234 700q0 -578 327 -578t327 578t-327 578t-327 -578z" />
    <glyph glyph-name="one" unicode="1" horiz-adv-x="629" 
d="M401 1404h129v-1408h-134v1227l-296 -123v128z" />
    <glyph glyph-name="two" unicode="2" horiz-adv-x="1023" 
d="M100 982q0 422 412 422t412 -408q0 -354 -628 -874h628v-126h-824v117q690 568 690 883q0 282 -278 282t-278 -296h-134z" />
    <glyph glyph-name="three" unicode="3" horiz-adv-x="1023" 
d="M692 699q232 -44 232 -295q0 -428 -422 -428t-422 442h134q0 -315 288 -315t288 301q0 204 -365 234v124q365 20 365 234q0 301 -278 301t-278 -315h-134q0 442 412 442t412 -428q0 -267 -232 -297z" />
    <glyph glyph-name="four" unicode="4" horiz-adv-x="1121" 
d="M691 -4v394h-591v118q396 395 596 896h129v-887h197v-127h-197v-394h-134zM691 517v589q-131 -314 -418 -589h418z" />
    <glyph glyph-name="five" unicode="5" horiz-adv-x="1023" 
d="M118 686l102 718h704v-126h-593l-59 -435q93 68 240 68q412 0 412 -507q0 -408 -412 -408t-412 422h134q0 -296 278 -296t278 282q0 381 -278 381q-169 0 -267 -99h-127z" />
    <glyph glyph-name="six" unicode="6" horiz-adv-x="1023" 
d="M812 1200q-152 78 -300 78q-278 0 -300 -561q61 183 300 194q412 0 412 -408q0 -507 -412 -507t-412 704t412 704q234 0 330 -86zM512 122q278 0 278 381q0 282 -278 282q-184 0 -278 -245q19 -418 278 -418z" />
    <glyph glyph-name="seven" unicode="7" horiz-adv-x="1023" 
d="M100 1404h824v-116q-394 -493 -495 -1292h-134q101 807 455 1282h-650v126z" />
    <glyph glyph-name="eight" unicode="8" horiz-adv-x="1023" 
d="M512 686q-113 0 -195.5 -82t-82.5 -200q0 -117 82.5 -199.5t195.5 -82.5t195.5 82.5t82.5 199.5q0 118 -82.5 200t-195.5 82zM512 1278q-94 0 -161.5 -67.5t-67.5 -165.5t67.5 -165.5t161.5 -67.5t161.5 67.5t67.5 165.5t-67.5 165.5t-161.5 67.5zM727 754q32 -18 77 -61
q120 -120 120 -289q0 -168 -119.5 -288t-292.5 -120t-292.5 120t-119.5 288q0 169 120 289q45 43 77 61q-15 10 -42 40q-106 103 -106 251t105.5 253.5t257.5 105.5t257.5 -105.5t105.5 -253.5t-106 -253q-27 -28 -42 -38z" />
    <glyph glyph-name="nine" unicode="9" horiz-adv-x="1023" 
d="M211 172q153 -50 301 -50q278 0 300 597q-73 -219 -300 -230q-412 0 -412 408q0 507 412 507t412 -704t-412 -704q-234 0 -333 67zM512 1278q-278 0 -278 -381q0 -282 278 -282q184 0 278 245q-19 418 -278 418z" />
    <glyph glyph-name="colon" unicode=":" horiz-adv-x="300" 
d="M234 212v-224h-134v224h134zM234 1012v-224h-134v224h134z" />
    <glyph glyph-name="semicolon" unicode=";" horiz-adv-x="300" 
d="M252 211v-211q0 -104 -107 -211h-144q117 117 117 211v211h134zM234 1012v-224h-134v224h134z" />
    <glyph glyph-name="semicolon" unicode="&#x37e;" horiz-adv-x="300" 
d="M252 211v-211q0 -104 -107 -211h-144q117 117 117 211v211h134zM234 1012v-224h-134v224h134z" />
    <glyph glyph-name="less" unicode="&#x3c;" horiz-adv-x="827" 
d="M100 593v114l628 314v-132l-479 -239l479 -239v-132z" />
    <glyph glyph-name="equal" unicode="=" horiz-adv-x="925" 
d="M826 910v-126h-726v126h726zM827 516v-126h-727v126h727z" />
    <glyph glyph-name="greater" unicode="&#x3e;" horiz-adv-x="827" 
d="M100 279v132l479 239l-479 239v132l628 -314v-114z" />
    <glyph glyph-name="question" unicode="?" horiz-adv-x="928" 
d="M100 1281q110 143 317 143q412 0 412 -428q0 -264 -274 -387q-121 -74 -121 -218h-134q0 238 217 331q178 75 178 274q0 302 -278 302q-122 0 -232 -108zM434 221v-225h-134v225h134z" />
    <glyph glyph-name="A" unicode="A" horiz-adv-x="1331" 
d="M379 390l-143 -394h-136l503 1408h126l503 -1408h-136l-143 394h-574zM908 517l-242 665l-242 -665h484z" />
    <glyph glyph-name="B" unicode="B" horiz-adv-x="1121" 
d="M234 812h327q229 0 229 233t-229 233h-327v-466zM235 123h377q276 -1 276 281q1 282 -276 282l-376 1zM100 1404h461q363 0 363 -359q0 -197 -167 -275q257 -79 265 -366q0 -408 -412 -408l-509 1z" />
    <glyph glyph-name="C" unicode="C" horiz-adv-x="1123" 
d="M976 1240q-167 67 -366 67q-376 0 -376 -607q0 -597 376 -597q200 0 368 81l33 -112q-136 -96 -401 -96q-510 0 -510 724q0 734 510 734q265 0 401 -72z" />
    <glyph glyph-name="D" unicode="D" horiz-adv-x="1221" 
d="M100 1404h412q610 0 610 -704t-610 -704h-412v1408zM234 1278v-1156h278q476 0 476 578t-476 578h-278z" />
    <glyph glyph-name="E" unicode="E" horiz-adv-x="1023" 
d="M924 1278h-690v-466h592v-126h-592v-564h690v-126h-824v1408h824v-126z" />
    <glyph glyph-name="F" unicode="F" horiz-adv-x="1023" 
d="M234 1278v-466h641v-126h-641v-690h-134v1408h824v-126h-690z" />
    <glyph glyph-name="G" unicode="G" horiz-adv-x="1188" 
d="M1082 71q-219 -95 -452 -95q-530 0 -530 724q0 734 511 734q263 0 444 -70l-24 -126q-197 69 -420 69q-377 0 -377 -607q0 -597 396 -597q212 0 318 55v430h-355v126h489v-643z" />
    <glyph glyph-name="H" unicode="H" horiz-adv-x="1121" 
d="M234 1404v-592h654v592h134v-1408h-134v690h-654v-690h-134v1408h134z" />
    <glyph glyph-name="I" unicode="I" horiz-adv-x="333" 
d="M234 1404v-1408h-134v1408h134z" />
    <glyph glyph-name="J" unicode="J" horiz-adv-x="1023" 
d="M924 1404v-1000q0 -428 -412 -428t-412 442h134q0 -316 278 -316t278 302v1000h134z" />
    <glyph glyph-name="K" unicode="K" horiz-adv-x="1133" 
d="M234 686v-690h-134v1408h134v-592h169l424 592h158l-463 -655l512 -753h-158l-474 690h-168z" />
    <glyph glyph-name="L" unicode="L" horiz-adv-x="1023" 
d="M234 1404v-1282h690v-126h-824v1408h134z" />
    <glyph glyph-name="M" unicode="M" horiz-adv-x="1417" 
d="M100 -4v1408h129l480 -1210l480 1210h129v-1408h-134v1064l-413 -1064h-124l-413 1064v-1064h-134z" />
    <glyph glyph-name="N" unicode="N" horiz-adv-x="1221" 
d="M100 -4v1408h127l761 -1168v1168h134v-1408h-127l-761 1168v-1168h-134z" />
    <glyph glyph-name="O" unicode="O" horiz-adv-x="1319" 
d="M1220 700q0 -724 -560 -724t-560 724q0 714 560 714t560 -714zM234 700q0 -598 426 -598t426 598q0 588 -426 588t-426 -588z" />
    <glyph glyph-name="P" unicode="P" horiz-adv-x="1121" 
d="M234 1278v-564h376q278 0 278 282t-278 282h-376zM100 1404h510q412 0 412 -408t-412 -408h-376v-592h-134v1408z" />
    <glyph glyph-name="Q" unicode="Q" horiz-adv-x="1319" 
d="M687 329l91 91l188 -188q120 132 120 467q0 598 -426 598t-426 -598q0 -597 426 -597q131 0 207 46zM964 52q-114 -76 -304 -76q-560 0 -560 723q0 724 560 724t560 -724q0 -391 -158 -564l157 -155l-92 -92z" />
    <glyph glyph-name="R" unicode="R" horiz-adv-x="1132" 
d="M234 1278v-564h377q278 0 278 282t-278 282h-377zM234 588v-592h-134v1408h511q412 0 412 -408q0 -374 -324 -403l384 -597h-158l-380 592h-311z" />
    <glyph glyph-name="S" unicode="S" horiz-adv-x="1097" 
d="M867 1253q-178 54 -322 54q-308 0 -308 -301q0 -176 361 -253q408 -61 408 -359q0 -418 -471 -418q-296 0 -444 90l54 121q182 -84 390 -84q337 0 337 291q0 196 -360 253q-409 71 -409 359q0 428 442 428q226 0 364 -62z" />
    <glyph glyph-name="T" unicode="T" horiz-adv-x="1221" 
d="M1122 1404v-126h-444v-1282h-134v1282h-444v126h1022z" />
    <glyph glyph-name="U" unicode="U" horiz-adv-x="1221" 
d="M234 1404v-901q0 -401 377 -401t377 401v901h134v-901q0 -527 -511 -527t-511 527v901h134z" />
    <glyph glyph-name="V" unicode="V" horiz-adv-x="1331" 
d="M236 1404l430 -1186l430 1186h136l-503 -1408h-126l-503 1408h136z" />
    <glyph glyph-name="W" unicode="W" horiz-adv-x="1919" 
d="M234 1404l332 -1135l331 1135h126l331 -1135l332 1135h134l-403 -1408h-126l-331 1181l-331 -1181h-126l-403 1408h134z" />
    <glyph glyph-name="X" unicode="X" horiz-adv-x="1243" 
d="M543 700l-443 704h158l364 -579l364 579h158l-443 -704l443 -704h-158l-364 579l-364 -579h-158z" />
    <glyph glyph-name="Y" unicode="Y" horiz-adv-x="1343" 
d="M605 697l-505 707h158l414 -577l414 577h158l-505 -707v-701h-134v701z" />
    <glyph glyph-name="Z" unicode="Z" horiz-adv-x="1121" 
d="M100 1404h922v-135l-776 -1147h776v-126h-922v135l776 1147h-776v126z" />
    <glyph glyph-name="bracketleft" unicode="[" horiz-adv-x="432" 
d="M432 1475h-198v-1550h198v-126h-332v1802h332v-126z" />
    <glyph glyph-name="backslash" unicode="\" horiz-adv-x="633" 
d="M234 1601l300 -1802h-134l-300 1802h134z" />
    <glyph glyph-name="bracketright" unicode="]" horiz-adv-x="432" 
d="M1 1601h332v-1802h-332v126h198v1550h-198v126z" />
    <glyph glyph-name="asciicircum" unicode="^" horiz-adv-x="863" 
d="M764 1088h-163l-169 170l-179 -170h-153l332 333z" />
    <glyph glyph-name="underscore" unicode="_" horiz-adv-x="1121" 
d="M1022 113v-126h-922v126h922z" />
    <glyph glyph-name="grave" unicode="`" horiz-adv-x="343" 
d="M275 1312l68 -224h-136l-68 224h136z" />
    <glyph glyph-name="a" unicode="a" horiz-adv-x="1022" 
d="M744 243q-2 117 -3 251l2 -8h-133q-376 0 -376 -223q0 -163 228 -163q168 0 282 143zM740 697q0 193 -228 193q-127 0 -292 -46l-39 109q85 64 331 64q363 0 363 -320q0 -394 9 -704h-123q-13 66 -13 108q-127 -128 -286 -128q-362 0 -362 290q0 349 510 349h130v85z" />
    <glyph glyph-name="b" unicode="b" horiz-adv-x="1023" 
d="M234 1404v-540q102 155 278 155q412 0 412 -516q0 -527 -412 -527q-191 0 -282 97l-17 -77h-113v1408h134zM234 221q91 -119 278 -119q278 0 278 401q0 390 -278 390q-167 0 -278 -176v-496z" />
    <glyph glyph-name="c" unicode="c" horiz-adv-x="961" 
d="M804 815q-148 75 -291 75q-279 0 -279 -390t279 -390q143 0 294 75l52 -114q-143 -88 -346 -88q-413 0 -413 517t413 517q203 0 346 -88z" />
    <glyph glyph-name="d" unicode="d" horiz-adv-x="1023" 
d="M924 1404v-1408h-113l-17 97q-110 -117 -282 -117q-412 0 -412 527q0 516 412 516q167 0 278 -147v532h134zM790 717q-111 176 -278 176q-278 0 -278 -390q0 -401 278 -401q187 0 278 119v496z" />
    <glyph glyph-name="e" unicode="e" horiz-adv-x="1023" 
d="M234 437q0 -337 278 -337q156 0 303 107l73 -92q-115 -141 -376 -141q-412 0 -412 477v98q0 477 412 477t412 -477v-112h-690zM234 563h556q0 337 -278 337t-278 -337z" />
    <glyph glyph-name="f" unicode="f" horiz-adv-x="535" 
d="M349 1288q-116 0 -116 -194v-84h198v-127h-198v-887h-134v887h-98v127h98v84q0 320 250 320q60 0 169 -27l-61 -112q-60 13 -108 13z" />
    <glyph glyph-name="g" unicode="g" horiz-adv-x="1022" 
d="M790 711q-111 177 -278 177q-278 0 -278 -391q0 -400 278 -400q187 0 278 118v496zM924 4q0 -398 -363 -398q-225 0 -307 40l35 111q130 -25 272 -25q229 0 229 272v75q-106 -108 -278 -108q-412 0 -412 526q0 517 412 517q189 0 282 -127l17 117h113v-1000z" />
    <glyph glyph-name="h" unicode="h" horiz-adv-x="981" 
d="M100 1404h134v-508q122 133 278 133q375 0 375 -428v-605h-134v605q0 302 -241 302q-187 0 -278 -137v-770h-134v1408z" />
    <glyph glyph-name="i" unicode="i" horiz-adv-x="333" 
d="M234 1010v-1014h-134v1014h134zM234 1404v-225h-134v225h134z" />
    <glyph glyph-name="j" unicode="j" horiz-adv-x="334" 
d="M235 1401v-225h-134v225h134zM-96 -388v126q197 0 197 183v1086h134v-1086q0 -309 -331 -309z" />
    <glyph glyph-name="k" unicode="k" horiz-adv-x="937" 
d="M234 615h121l325 395h160l-366 -458l384 -556h-159l-345 493h-120v-493h-134v1408h134v-789z" />
    <glyph glyph-name="l" unicode="l" horiz-adv-x="333" 
d="M234 1503v-1506h-134v1506h134z" />
    <glyph glyph-name="m" unicode="m" horiz-adv-x="1517" 
d="M692 697q0 203 -219 203q-145 0 -239 -205v-702h-134v1014h114l17 -138q86 158 242 158q227 0 294 -167q71 167 288 167q363 0 363 -379v-655h-134v655q0 252 -229 252t-229 -252v-655h-134v704z" />
    <glyph glyph-name="n" unicode="n" horiz-adv-x="1023" 
d="M213 1007l17 -158q92 178 282 178q412 0 412 -428v-606h-134v606q0 301 -278 301q-184 0 -278 -234v-673h-134v1014h113z" />
    <glyph glyph-name="o" unicode="o" horiz-adv-x="1083" 
d="M974 500q0 -526 -442 -526q-432 0 -432 526t432 526q442 0 442 -526zM234 500q0 -400 298 -400q308 0 308 400t-308 400q-298 0 -298 -400z" />
    <glyph glyph-name="p" unicode="p" horiz-adv-x="1023" 
d="M213 1004l17 -142q103 152 282 152q412 0 412 -517q0 -526 -412 -526q-178 0 -278 98v-473h-134v1408h113zM234 215q91 -118 278 -118q278 0 278 400q0 391 -278 391q-167 0 -278 -177v-496z" />
    <glyph glyph-name="q" unicode="q" horiz-adv-x="1023" 
d="M924 1004v-1408h-134v476q-103 -101 -278 -101q-412 0 -412 526q0 517 412 517q173 0 282 -162l17 152h113zM790 711q-111 177 -278 177q-278 0 -278 -391q0 -400 278 -400q187 0 278 118v496z" />
    <glyph glyph-name="r" unicode="r" horiz-adv-x="727" 
d="M100 1007h113l17 -165q93 237 398 162v-127q-300 60 -394 -245v-638h-134v1013z" />
    <glyph glyph-name="s" unicode="s" horiz-adv-x="929" 
d="M737 833q-131 57 -270 57q-229 0 -229 -173q0 -117 232 -154q360 -41 360 -280q0 -310 -383 -310q-198 0 -338 79l54 123q165 -75 284 -75q249 0 249 183q0 117 -232 154q-360 41 -360 280q0 300 363 300q226 0 297 -61z" />
    <glyph glyph-name="t" unicode="t" horiz-adv-x="628" 
d="M464 -24q-266 0 -266 286v621h-98v126h98v373l134 24v-397h197v-126h-197v-621q0 -160 132 -160q45 0 136 26v-128q-85 -24 -136 -24z" />
    <glyph glyph-name="u" unicode="u" horiz-adv-x="1077" 
d="M234 1007v-606q0 -311 278 -311q187 0 328 216v701h134v-1014h-115l-19 143q-136 -173 -328 -173q-412 0 -412 438v606h134z" />
    <glyph glyph-name="v" unicode="v" horiz-adv-x="1133" 
d="M245 1007l322 -797l322 797h145l-405 -1014h-124l-405 1014h145z" />
    <glyph glyph-name="w" unicode="w" horiz-adv-x="1527" 
d="M764 768l-233 -775h-126l-305 1014h136l232 -790l233 790h126l233 -790l232 790h136l-305 -1014h-126z" />
    <glyph glyph-name="x" unicode="x" horiz-adv-x="1047" 
d="M445 500l-345 507h159l265 -391l265 391h159l-345 -507l345 -507h-159l-265 391l-265 -391h-159z" />
    <glyph glyph-name="y" unicode="y" horiz-adv-x="1034" 
d="M460 4l-360 1000h136l291 -809l273 809h135l-341 -1003q-131 -405 -429 -405v126q201 0 295 282z" />
    <glyph glyph-name="z" unicode="z" horiz-adv-x="925" 
d="M100 881v126h726v-146l-578 -742h578v-126h-726v146l578 742h-578z" />
    <glyph glyph-name="braceleft" unicode="{" horiz-adv-x="628" 
d="M628 1475q-197 0 -197 -183v-296q0 -205 -84 -247q84 -41 84 -246v-395q0 -183 197 -183v-126q-331 0 -331 309v395q0 183 -197 183v126q197 0 197 184v296q0 309 331 309v-126z" />
    <glyph glyph-name="bar" unicode="|" horiz-adv-x="333" 
d="M234 1601v-1802h-134v1802h134z" />
    <glyph glyph-name="braceright" unicode="}" horiz-adv-x="628" 
d="M1 1601q331 0 331 -309v-296q0 -184 197 -184v-126q-197 0 -197 -183v-395q0 -309 -331 -309v126q197 0 197 183v395q0 205 84 246q-84 42 -84 247v296q0 183 -197 183v126z" />
    <glyph glyph-name="exclamdown" unicode="&#xa1;" horiz-adv-x="300" 
d="M-134 -404v1014h134v-1014h-134zM-134 779v225h134v-225h-134z" />
    <glyph glyph-name="sterling" unicode="&#xa3;" horiz-adv-x="1134" 
d="M888 982q0 296 -278 296t-278 -282v-282h395v-126h-395v-466h690v-126h-922v126h98v466h-98v126h98v282q0 408 412 408t412 -422h-134z" />
    <glyph glyph-name="yen" unicode="&#xa5;" horiz-adv-x="1173" 
d="M648 390v-394h-119v394h-222v127h222v71h-222v126h212l-419 690h139l349 -573l350 573h139l-419 -690h217v-126h-227v-71h227v-127h-227z" />
    <glyph glyph-name="brokenbar" unicode="&#xa6;" horiz-adv-x="333" 
d="M234 1601v-718h-134v718h134zM234 517v-718h-134v718h134z" />
    <glyph glyph-name="dieresis" unicode="&#xa8;" horiz-adv-x="530" 
d="M234 1413v-126h-134v126h134zM530 1413v-126h-134v126h134z" />
    <glyph glyph-name="macron" unicode="&#xaf;" horiz-adv-x="530" 
d="M530 1413v-126h-430v126h430z" />
    <glyph glyph-name="acute" unicode="&#xb4;" horiz-adv-x="343" 
d="M304 1312l-68 -224h-136l68 224h136z" />
    <glyph glyph-name="Agrave" unicode="&#xc0;" horiz-adv-x="1300" 
d="M379 390l-143 -394h-136l503 1408h126l503 -1408h-136l-143 394h-574zM908 517l-242 665l-242 -665h484zM692 1712l68 -224h-136l-68 224h136z" />
    <glyph glyph-name="Aacute" unicode="&#xc1;" horiz-adv-x="1300" 
d="M379 390l-143 -394h-136l503 1408h126l503 -1408h-136l-143 394h-574zM908 517l-242 665l-242 -665h484zM787 1712l-68 -224h-136l68 224h136z" />
    <glyph glyph-name="Acircumflex" unicode="&#xc2;" horiz-adv-x="1300" 
d="M379 390l-143 -394h-136l503 1408h126l503 -1408h-136l-143 394h-574zM908 517l-242 665l-242 -665h484zM400 1526l220 264h118l220 -264h-150l-129 138l-129 -138h-150z" />
    <glyph glyph-name="Adieresis" unicode="&#xc4;" horiz-adv-x="1300" 
d="M379 390l-143 -394h-136l503 1408h126l503 -1408h-136l-143 394h-574zM908 517l-242 665l-242 -665h484zM584 1614v-126h-134v126h134zM880 1614v-126h-134v126h134z" />
    <glyph glyph-name="Egrave" unicode="&#xc8;" 
d="M924 1278h-690v-466h592v-126h-592v-564h690v-126h-824v1408h824v-126zM542 1712l68 -224h-136l-68 224h136z" />
    <glyph glyph-name="Eacute" unicode="&#xc9;" 
d="M924 1278h-690v-466h592v-126h-592v-564h690v-126h-824v1408h824v-126zM637 1712l-68 -224h-136l68 224h136z" />
    <glyph glyph-name="Ecircumflex" unicode="&#xca;" 
d="M924 1278h-690v-466h592v-126h-592v-564h690v-126h-824v1408h824v-126zM250 1522l220 264h118l220 -264h-150l-129 138l-129 -138h-150z" />
    <glyph glyph-name="Edieresis" unicode="&#xcb;" 
d="M924 1278h-690v-466h592v-126h-592v-564h690v-126h-824v1408h824v-126zM435 1614v-126h-134v126h134zM731 1614v-126h-134v126h134z" />
    <glyph glyph-name="Ograve" unicode="&#xd2;" horiz-adv-x="1300" 
d="M1220 700q0 -724 -560 -724t-560 724q0 714 560 714t560 -714zM234 700q0 -598 426 -598t426 598q0 588 -426 588t-426 -588zM692 1712l68 -224h-136l-68 224h136z" />
    <glyph glyph-name="Oacute" unicode="&#xd3;" horiz-adv-x="1300" 
d="M1220 700q0 -724 -560 -724t-560 724q0 714 560 714t560 -714zM234 700q0 -598 426 -598t426 598q0 588 -426 588t-426 -588zM787 1712l-68 -224h-136l68 224h136z" />
    <glyph glyph-name="Ocircumflex" unicode="&#xd4;" horiz-adv-x="1300" 
d="M1220 700q0 -724 -560 -724t-560 724q0 714 560 714t560 -714zM234 700q0 -598 426 -598t426 598q0 588 -426 588t-426 -588zM400 1526l220 264h118l220 -264h-150l-129 138l-129 -138h-150z" />
    <glyph glyph-name="Odieresis" unicode="&#xd6;" horiz-adv-x="1300" 
d="M1220 700q0 -724 -560 -724t-560 724q0 714 560 714t560 -714zM234 700q0 -598 426 -598t426 598q0 588 -426 588t-426 -588zM584 1614v-126h-134v126h134zM880 1614v-126h-134v126h134z" />
    <glyph glyph-name="Ugrave" unicode="&#xd9;" horiz-adv-x="1200" 
d="M234 1404v-901q0 -401 377 -401t377 401v901h134v-901q0 -527 -511 -527t-511 527v901h134zM642 1712l68 -224h-136l-68 224h136z" />
    <glyph glyph-name="Uacute" unicode="&#xda;" horiz-adv-x="1200" 
d="M234 1404v-901q0 -401 377 -401t377 401v901h134v-901q0 -527 -511 -527t-511 527v901h134zM737 1712l-68 -224h-136l68 224h136z" />
    <glyph glyph-name="Ucircumflex" unicode="&#xdb;" horiz-adv-x="1200" 
d="M234 1404v-901q0 -401 377 -401t377 401v901h134v-901q0 -527 -511 -527t-511 527v901h134zM350 1532l220 264h118l220 -264h-150l-129 138l-129 -138h-150z" />
    <glyph glyph-name="Udieresis" unicode="&#xdc;" horiz-adv-x="1200" 
d="M234 1404v-901q0 -401 377 -401t377 401v901h134v-901q0 -527 -511 -527t-511 527v901h134zM534 1615v-126h-134v126h134zM830 1615v-126h-134v126h134z" />
    <glyph glyph-name="Yacute" unicode="&#xdd;" horiz-adv-x="1300" 
d="M605 697l-505 707h158l414 -577l414 577h158l-505 -707v-701h-134v701zM787 1712l-68 -224h-136l68 224h136z" />
    <glyph glyph-name="agrave" unicode="&#xe0;" 
d="M744 243q-2 117 -3 251l2 -8h-133q-376 0 -376 -223q0 -163 228 -163q168 0 282 143zM740 697q0 193 -228 193q-127 0 -292 -46l-39 109q85 64 331 64q363 0 363 -320q0 -394 9 -704h-123q-13 66 -13 108q-127 -128 -286 -128q-362 0 -362 290q0 349 510 349h130v85z
M532 1312l68 -224h-136l-68 224h136z" />
    <glyph glyph-name="aacute" unicode="&#xe1;" 
d="M744 243q-2 117 -3 251l2 -8h-133q-376 0 -376 -223q0 -163 228 -163q168 0 282 143zM740 697q0 193 -228 193q-127 0 -292 -46l-39 109q85 64 331 64q363 0 363 -320q0 -394 9 -704h-123q-13 66 -13 108q-127 -128 -286 -128q-362 0 -362 290q0 349 510 349h130v85z
M627 1312l-68 -224h-136l68 224h136z" />
    <glyph glyph-name="acircumflex" unicode="&#xe2;" 
d="M744 243q-2 117 -3 251l2 -8h-133q-376 0 -376 -223q0 -163 228 -163q168 0 282 143zM740 697q0 193 -228 193q-127 0 -292 -46l-39 109q85 64 331 64q363 0 363 -320q0 -394 9 -704h-123q-13 66 -13 108q-127 -128 -286 -128q-362 0 -362 290q0 349 510 349h130v85z
M240 1148l220 264h118l220 -264h-150l-129 138l-129 -138h-150z" />
    <glyph glyph-name="adieresis" unicode="&#xe4;" 
d="M744 243q-2 117 -3 251l2 -8h-133q-376 0 -376 -223q0 -163 228 -163q168 0 282 143zM740 697q0 193 -228 193q-127 0 -292 -46l-39 109q85 64 331 64q363 0 363 -320q0 -394 9 -704h-123q-13 66 -13 108q-127 -128 -286 -128q-362 0 -362 290q0 349 510 349h130v85z
M424 1214v-126h-134v126h134zM720 1214v-126h-134v126h134z" />
    <glyph glyph-name="egrave" unicode="&#xe8;" 
d="M234 437q0 -337 278 -337q156 0 303 107l73 -92q-115 -141 -376 -141q-412 0 -412 477v98q0 477 412 477t412 -477v-112h-690zM234 563h556q0 337 -278 337t-278 -337zM542 1312l68 -224h-136l-68 224h136z" />
    <glyph glyph-name="eacute" unicode="&#xe9;" 
d="M234 437q0 -337 278 -337q156 0 303 107l73 -92q-115 -141 -376 -141q-412 0 -412 477v98q0 477 412 477t412 -477v-112h-690zM234 563h556q0 337 -278 337t-278 -337zM637 1312l-68 -224h-136l68 224h136z" />
    <glyph glyph-name="ecircumflex" unicode="&#xea;" 
d="M234 437q0 -337 278 -337q156 0 303 107l73 -92q-115 -141 -376 -141q-412 0 -412 477v98q0 477 412 477t412 -477v-112h-690zM234 563h556q0 337 -278 337t-278 -337zM250 1148l220 264h118l220 -264h-150l-129 138l-129 -138h-150z" />
    <glyph glyph-name="edieresis" unicode="&#xeb;" 
d="M234 437q0 -337 278 -337q156 0 303 107l73 -92q-115 -141 -376 -141q-412 0 -412 477v98q0 477 412 477t412 -477v-112h-690zM234 563h556q0 337 -278 337t-278 -337zM434 1214v-126h-134v126h134zM730 1214v-126h-134v126h134z" />
    <glyph glyph-name="ograve" unicode="&#xf2;" horiz-adv-x="1061" 
d="M974 500q0 -526 -442 -526q-432 0 -432 526t432 526q442 0 442 -526zM234 500q0 -400 298 -400q308 0 308 400t-308 400q-298 0 -298 -400zM567 1312l68 -224h-136l-68 224h136z" />
    <glyph glyph-name="oacute" unicode="&#xf3;" horiz-adv-x="1061" 
d="M974 500q0 -526 -442 -526q-432 0 -432 526t432 526q442 0 442 -526zM234 500q0 -400 298 -400q308 0 308 400t-308 400q-298 0 -298 -400zM662 1312l-68 -224h-136l68 224h136z" />
    <glyph glyph-name="ocircumflex" unicode="&#xf4;" horiz-adv-x="1061" 
d="M974 500q0 -526 -442 -526q-432 0 -432 526t432 526q442 0 442 -526zM234 500q0 -400 298 -400q308 0 308 400t-308 400q-298 0 -298 -400zM275 1148l220 264h118l220 -264h-150l-129 138l-129 -138h-150z" />
    <glyph glyph-name="odieresis" unicode="&#xf6;" horiz-adv-x="1061" 
d="M974 500q0 -526 -442 -526q-432 0 -432 526t432 526q442 0 442 -526zM234 500q0 -400 298 -400q308 0 308 400t-308 400q-298 0 -298 -400zM459 1214v-126h-134v126h134zM755 1214v-126h-134v126h134z" />
    <glyph glyph-name="ugrave" unicode="&#xf9;" horiz-adv-x="1054" 
d="M234 1007v-606q0 -311 278 -311q187 0 328 216v701h134v-1014h-115l-19 143q-136 -173 -328 -173q-412 0 -412 438v606h134zM567 1312l68 -224h-136l-68 224h136z" />
    <glyph glyph-name="uacute" unicode="&#xfa;" horiz-adv-x="1054" 
d="M234 1007v-606q0 -311 278 -311q187 0 328 216v701h134v-1014h-115l-19 143q-136 -173 -328 -173q-412 0 -412 438v606h134zM662 1312l-68 -224h-136l68 224h136z" />
    <glyph glyph-name="ucircumflex" unicode="&#xfb;" horiz-adv-x="1054" 
d="M234 1007v-606q0 -311 278 -311q187 0 328 216v701h134v-1014h-115l-19 143q-136 -173 -328 -173q-412 0 -412 438v606h134zM275 1148l220 264h118l220 -264h-150l-129 138l-129 -138h-150z" />
    <glyph glyph-name="udieresis" unicode="&#xfc;" horiz-adv-x="1054" 
d="M234 1007v-606q0 -311 278 -311q187 0 328 216v701h134v-1014h-115l-19 143q-136 -173 -328 -173q-412 0 -412 438v606h134zM459 1214v-126h-134v126h134zM755 1214v-126h-134v126h134z" />
    <glyph glyph-name="yacute" unicode="&#xfd;" 
d="M460 4l-360 1000h136l291 -809l273 809h135l-341 -1003q-131 -405 -429 -405v126q201 0 295 282zM637 1312l-68 -224h-136l68 224h136z" />
    <glyph glyph-name="ydieresis" unicode="&#xff;" 
d="M460 4l-360 1000h136l291 -809l273 809h135l-341 -1003q-131 -405 -429 -405v126q201 0 295 282zM434 1214v-126h-134v126h134zM730 1214v-126h-134v126h134z" />
    <glyph glyph-name="dotlessi" unicode="&#x131;" horiz-adv-x="333" 
d="M234 1007v-1014h-134v1014h134z" />
    <glyph glyph-name="circumflex" unicode="&#x2c6;" horiz-adv-x="658" 
d="M100 1148l220 264h118l220 -264h-150l-129 138l-129 -138h-150z" />
    <glyph glyph-name="caron" unicode="&#x2c7;" horiz-adv-x="658" 
d="M250 1412l129 -138l129 138h150l-220 -264h-118l-220 264h150z" />
    <glyph glyph-name="dotaccent" unicode="&#x2d9;" horiz-adv-x="333" 
d="M234 1412v-224h-134v224h134z" />
    <glyph glyph-name="ogonek" unicode="&#x2db;" horiz-adv-x="233" 
d="M196 12q-80 -107 -80 -177q0 -30 43 -30q57 0 173 142v-150q-86 -109 -195 -109q-155 0 -155 123q0 104 129 201h85z" />
    <glyph glyph-name="Euro" unicode="&#x20ac;" horiz-adv-x="1124" 
d="M113 489h-112v126h101q-2 34 -2 85t2 85h-101v126h112q63 513 498 513q264 0 414 -129l-57 -128q-158 130 -357 130q-309 0 -362 -386l577 1v-126l-590 -1q-2 -34 -2 -85t2 -85l590 1v-126l-578 -1q54 -386 363 -386q200 0 365 131l49 -129q-150 -129 -414 -129
q-435 0 -498 513z" />
    <glyph glyph-name="Aogonek" unicode="&#x104;" horiz-adv-x="1300" 
d="M379 390l-143 -394h-136l503 1408h126l503 -1408h-136l-143 394h-574zM908 517l-242 665l-242 -665h484zM1196 12q-80 -107 -80 -177q0 -30 43 -30q57 0 173 142v-150q-86 -109 -195 -109q-155 0 -155 123q0 104 129 201h85z" />
    <glyph glyph-name="aogonek" unicode="&#x105;" 
d="M744 243q-2 117 -3 251l2 -8h-133q-376 0 -376 -223q0 -163 228 -163q168 0 282 143zM740 697q0 193 -228 193q-127 0 -292 -46l-39 109q85 64 331 64q363 0 363 -320q0 -394 9 -704h-123q-13 66 -13 108q-127 -128 -286 -128q-362 0 -362 290q0 349 510 349h130v85z
M876 12q-80 -107 -80 -177q0 -30 43 -30q57 0 173 142v-150q-86 -109 -195 -109q-155 0 -155 123q0 104 129 201h85z" />
    <glyph glyph-name="Cacute" unicode="&#x106;" horiz-adv-x="1200" 
d="M976 1240q-167 67 -366 67q-376 0 -376 -607q0 -597 376 -597q200 0 368 81l33 -112q-136 -96 -401 -96q-510 0 -510 724q0 734 510 734q265 0 401 -72zM737 1712l-68 -224h-136l68 224h136z" />
    <glyph glyph-name="cacute" unicode="&#x107;" 
d="M804 815q-148 75 -291 75q-279 0 -279 -390t279 -390q143 0 294 75l52 -114q-143 -88 -346 -88q-413 0 -413 517t413 517q203 0 346 -88zM632 1312l-68 -224h-136l68 224h136z" />
    <glyph glyph-name="Ccircumflex" unicode="&#x108;" horiz-adv-x="1200" 
d="M976 1240q-167 67 -366 67q-376 0 -376 -607q0 -597 376 -597q200 0 368 81l33 -112q-136 -96 -401 -96q-510 0 -510 724q0 734 510 734q265 0 401 -72zM350 1548l220 264h118l220 -264h-150l-129 138l-129 -138h-150z" />
    <glyph glyph-name="ccircumflex" unicode="&#x109;" 
d="M804 815q-148 75 -291 75q-279 0 -279 -390t279 -390q143 0 294 75l52 -114q-143 -88 -346 -88q-413 0 -413 517t413 517q203 0 346 -88zM245 1148l220 264h118l220 -264h-150l-129 138l-129 -138h-150z" />
    <glyph glyph-name="Cdotaccent" unicode="&#x10a;" horiz-adv-x="1200" 
d="M976 1240q-167 67 -366 67q-376 0 -376 -607q0 -597 376 -597q200 0 368 81l33 -112q-136 -96 -401 -96q-510 0 -510 724q0 734 510 734q265 0 401 -72zM684 1812v-224h-134v224h134z" />
    <glyph glyph-name="cdotaccent" unicode="&#x10b;" 
d="M804 815q-148 75 -291 75q-279 0 -279 -390t279 -390q143 0 294 75l52 -114q-143 -88 -346 -88q-413 0 -413 517t413 517q203 0 346 -88zM579 1313v-224h-134v224h134z" />
    <glyph glyph-name="Ccaron" unicode="&#x10c;" horiz-adv-x="1200" 
d="M976 1240q-167 67 -366 67q-376 0 -376 -607q0 -597 376 -597q200 0 368 81l33 -112q-136 -96 -401 -96q-510 0 -510 724q0 734 510 734q265 0 401 -72zM494 1792l129 -138l129 138h150l-220 -264h-118l-220 264h150z" />
    <glyph glyph-name="ccaron" unicode="&#x10d;" 
d="M804 815q-148 75 -291 75q-279 0 -279 -390t279 -390q143 0 294 75l52 -114q-143 -88 -346 -88q-413 0 -413 517t413 517q203 0 346 -88zM395 1412l129 -138l129 138h150l-220 -264h-118l-220 264h150z" />
    <glyph glyph-name="Dcaron" unicode="&#x10e;" horiz-adv-x="1250" 
d="M100 1404h412q610 0 610 -704t-610 -704h-412v1408zM234 1278v-1156h278q476 0 476 578t-476 578h-278zM525 1792l129 -138l129 138h150l-220 -264h-118l-220 264h150z" />
    <glyph glyph-name="Edotaccent" unicode="&#x116;" 
d="M924 1278h-690v-466h592v-126h-592v-564h690v-126h-824v1408h824v-126zM584 1812v-224h-134v224h134z" />
    <glyph glyph-name="edotaccent" unicode="&#x117;" 
d="M234 437q0 -337 278 -337q156 0 303 107l73 -92q-115 -141 -376 -141q-412 0 -412 477v98q0 477 412 477t412 -477v-112h-690zM234 563h556q0 337 -278 337t-278 -337zM584 1313v-224h-134v224h134z" />
    <glyph glyph-name="Eogonek" unicode="&#x118;" 
d="M924 1278h-690v-466h592v-126h-592v-564h690v-126h-824v1408h824v-126zM796 12q-80 -107 -80 -177q0 -30 43 -30q57 0 173 142v-150q-86 -109 -195 -109q-155 0 -155 123q0 104 129 201h85z" />
    <glyph glyph-name="eogonek" unicode="&#x119;" 
d="M234 437q0 -337 278 -337q156 0 303 107l73 -92q-115 -141 -376 -141q-412 0 -412 477v98q0 477 412 477t412 -477v-112h-690zM234 563h556q0 337 -278 337t-278 -337zM706 12q-80 -107 -80 -177q0 -30 43 -30q57 0 173 142v-150q-86 -109 -195 -109q-155 0 -155 123
q0 104 129 201h85z" />
    <glyph glyph-name="Ecaron" unicode="&#x11a;" 
d="M924 1278h-690v-466h592v-126h-592v-564h690v-126h-824v1408h824v-126zM400 1792l129 -138l129 138h150l-220 -264h-118l-220 264h150z" />
    <glyph glyph-name="ecaron" unicode="&#x11b;" 
d="M234 437q0 -337 278 -337q156 0 303 107l73 -92q-115 -141 -376 -141q-412 0 -412 477v98q0 477 412 477t412 -477v-112h-690zM234 563h556q0 337 -278 337t-278 -337zM400 1412l129 -138l129 138h150l-220 -264h-118l-220 264h150z" />
    <glyph glyph-name="Gcircumflex" unicode="&#x11c;" horiz-adv-x="1200" 
d="M1082 71q-219 -95 -452 -95q-530 0 -530 724q0 734 511 734q263 0 444 -70l-24 -126q-197 69 -420 69q-377 0 -377 -607q0 -597 396 -597q212 0 318 55v430h-355v126h489v-643zM350 1528l220 264h118l220 -264h-150l-129 138l-129 -138h-150z" />
    <glyph glyph-name="gcircumflex" unicode="&#x11d;" horiz-adv-x="999" 
d="M790 711q-111 177 -278 177q-278 0 -278 -391q0 -400 278 -400q187 0 278 118v496zM924 4q0 -398 -363 -398q-225 0 -307 40l35 111q130 -25 272 -25q229 0 229 272v75q-106 -108 -278 -108q-412 0 -412 526q0 517 412 517q189 0 282 -127l17 117h113v-1000zM250 1148
l220 264h118l220 -264h-150l-129 138l-129 -138h-150z" />
    <glyph glyph-name="Gdotaccent" unicode="&#x120;" horiz-adv-x="1200" 
d="M1082 71q-219 -95 -452 -95q-530 0 -530 724q0 734 511 734q263 0 444 -70l-24 -126q-197 69 -420 69q-377 0 -377 -607q0 -597 396 -597q212 0 318 55v430h-355v126h489v-643zM684 1812v-224h-134v224h134z" />
    <glyph glyph-name="gdotaccent" unicode="&#x121;" horiz-adv-x="999" 
d="M790 711q-111 177 -278 177q-278 0 -278 -391q0 -400 278 -400q187 0 278 118v496zM924 4q0 -398 -363 -398q-225 0 -307 40l35 111q130 -25 272 -25q229 0 229 272v75q-106 -108 -278 -108q-412 0 -412 526q0 517 412 517q189 0 282 -127l17 117h113v-1000zM584 1312
v-224h-134v224h134z" />
    <glyph glyph-name="Hcircumflex" unicode="&#x124;" horiz-adv-x="1100" 
d="M234 1404v-592h654v592h134v-1408h-134v690h-654v-690h-134v1408h134zM300 1528l220 264h118l220 -264h-150l-129 138l-129 -138h-150z" />
    <glyph glyph-name="hcircumflex" unicode="&#x125;" horiz-adv-x="958" 
d="M100 1404h134v-508q122 133 278 133q375 0 375 -428v-605h-134v605q0 302 -241 302q-187 0 -278 -137v-770h-134v1408zM232 1431l220 264h118l220 -264h-150l-129 138l-129 -138h-150z" />
    <glyph glyph-name="Jcircumflex" unicode="&#x134;" 
d="M924 1404v-1000q0 -428 -412 -428t-412 442h134q0 -316 278 -316t278 302v1000h134zM250 1528l220 264h118l220 -264h-150l-129 138l-129 -138h-150z" />
    <glyph glyph-name="Lacute" unicode="&#x139;" horiz-adv-x="958" 
d="M234 1404v-1282h690v-126h-824v1408h134zM616 1712l-68 -224h-136l68 224h136z" />
    <glyph glyph-name="Lslash" unicode="&#x141;" horiz-adv-x="982" 
d="M100 785v619h134v-513l296 237v-158l-296 -236v-612h648v-126h-782v631l-99 -79v158z" />
    <glyph glyph-name="lslash" unicode="&#x142;" horiz-adv-x="333" 
d="M100 871v632h134v-543l99 66v-154l-99 -66v-809h-134v720l-99 -66v154z" />
    <glyph glyph-name="Nacute" unicode="&#x143;" horiz-adv-x="1200" 
d="M100 -4v1408h127l761 -1168v1168h134v-1408h-127l-761 1168v-1168h-134zM737 1712l-68 -224h-136l68 224h136z" />
    <glyph glyph-name="nacute" unicode="&#x144;" 
d="M213 1007l17 -158q92 178 282 178q412 0 412 -428v-606h-134v606q0 301 -278 301q-184 0 -278 -234v-673h-134v1014h113zM637 1312l-68 -224h-136l68 224h136z" />
    <glyph glyph-name="Ncaron" unicode="&#x147;" horiz-adv-x="1200" 
d="M100 -4v1408h127l761 -1168v1168h134v-1408h-127l-761 1168v-1168h-134zM500 1812l129 -138l129 138h150l-220 -264h-118l-220 264h150z" />
    <glyph glyph-name="ncaron" unicode="&#x148;" 
d="M213 1007l17 -158q92 178 282 178q412 0 412 -428v-606h-134v606q0 301 -278 301q-184 0 -278 -234v-673h-134v1014h113zM400 1412l129 -138l129 138h150l-220 -264h-118l-220 264h150z" />
    <glyph glyph-name="Racute" unicode="&#x154;" horiz-adv-x="1100" 
d="M234 1278v-564h377q278 0 278 282t-278 282h-377zM234 588v-592h-134v1408h511q412 0 412 -408q0 -374 -324 -403l384 -597h-158l-380 592h-311zM712 1712l-68 -224h-136l68 224h136z" />
    <glyph glyph-name="racute" unicode="&#x155;" horiz-adv-x="700" 
d="M100 1007h113l17 -165q93 237 398 162v-127q-300 60 -394 -245v-638h-134v1013zM487 1312l-68 -224h-136l68 224h136z" />
    <glyph glyph-name="Sacute" unicode="&#x15a;" horiz-adv-x="1073" 
d="M867 1253q-178 54 -322 54q-308 0 -308 -301q0 -176 361 -253q408 -61 408 -359q0 -418 -471 -418q-296 0 -444 90l54 121q182 -84 390 -84q337 0 337 291q0 196 -360 253q-409 71 -409 359q0 428 442 428q226 0 364 -62zM667 1712l-68 -224h-136l68 224h136z" />
    <glyph glyph-name="sacute" unicode="&#x15b;" horiz-adv-x="900" 
d="M737 833q-131 57 -270 57q-229 0 -229 -173q0 -117 232 -154q360 -41 360 -280q0 -310 -383 -310q-198 0 -338 79l54 123q165 -75 284 -75q249 0 249 183q0 117 -232 154q-360 41 -360 280q0 300 363 300q226 0 297 -61zM582 1312l-68 -224h-136l68 224h136z" />
    <glyph glyph-name="Scircumflex" unicode="&#x15c;" horiz-adv-x="1073" 
d="M867 1253q-178 54 -322 54q-308 0 -308 -301q0 -176 361 -253q408 -61 408 -359q0 -418 -471 -418q-296 0 -444 90l54 121q182 -84 390 -84q337 0 337 291q0 196 -360 253q-409 71 -409 359q0 428 442 428q226 0 364 -62zM280 1528l220 264h118l220 -264h-150l-129 138
l-129 -138h-150z" />
    <glyph glyph-name="scircumflex" unicode="&#x15d;" horiz-adv-x="900" 
d="M737 833q-131 57 -270 57q-229 0 -229 -173q0 -117 232 -154q360 -41 360 -280q0 -310 -383 -310q-198 0 -338 79l54 123q165 -75 284 -75q249 0 249 183q0 117 -232 154q-360 41 -360 280q0 300 363 300q226 0 297 -61zM195 1148l220 264h118l220 -264h-150l-129 138
l-129 -138h-150z" />
    <glyph glyph-name="Scaron" unicode="&#x160;" horiz-adv-x="1073" 
d="M867 1253q-178 54 -322 54q-308 0 -308 -301q0 -176 361 -253q408 -61 408 -359q0 -418 -471 -418q-296 0 -444 90l54 121q182 -84 390 -84q337 0 337 291q0 196 -360 253q-409 71 -409 359q0 428 442 428q226 0 364 -62zM430 1792l129 -138l129 138h150l-220 -264h-118
l-220 264h150z" />
    <glyph glyph-name="scaron" unicode="&#x161;" horiz-adv-x="900" 
d="M737 833q-131 57 -270 57q-229 0 -229 -173q0 -117 232 -154q360 -41 360 -280q0 -310 -383 -310q-198 0 -338 79l54 123q165 -75 284 -75q249 0 249 183q0 117 -232 154q-360 41 -360 280q0 300 363 300q226 0 297 -61zM345 1412l129 -138l129 138h150l-220 -264h-118
l-220 264h150z" />
    <glyph glyph-name="Zacute" unicode="&#x179;" horiz-adv-x="1100" 
d="M100 1404h922v-135l-776 -1147h776v-126h-922v135l776 1147h-776v126zM687 1712l-68 -224h-136l68 224h136z" />
    <glyph glyph-name="zacute" unicode="&#x17a;" horiz-adv-x="900" 
d="M100 881v126h726v-146l-578 -742h578v-126h-726v146l578 742h-578zM587 1312l-68 -224h-136l68 224h136z" />
    <glyph glyph-name="Zdotaccent" unicode="&#x17b;" horiz-adv-x="1100" 
d="M100 1404h922v-135l-776 -1147h776v-126h-922v135l776 1147h-776v126zM634 1812v-224h-134v224h134z" />
    <glyph glyph-name="zdotaccent" unicode="&#x17c;" horiz-adv-x="900" 
d="M100 881v126h726v-146l-578 -742h578v-126h-726v146l578 742h-578zM534 1312v-224h-134v224h134z" />
    <glyph glyph-name="Zcaron" unicode="&#x17d;" horiz-adv-x="1100" 
d="M100 1404h922v-135l-776 -1147h776v-126h-922v135l776 1147h-776v126zM450 1792l129 -138l129 138h150l-220 -264h-118l-220 264h150z" />
    <glyph glyph-name="zcaron" unicode="&#x17e;" horiz-adv-x="900" 
d="M100 881v126h726v-146l-578 -742h578v-126h-726v146l578 742h-578zM350 1412l129 -138l129 138h150l-220 -264h-118l-220 264h150z" />
    <glyph glyph-name="HalfLifeLambda" unicode="&#xe000;" horiz-adv-x="1241" 
d="M652 797l-213 433l-118 -69l-64 115l227 136l708 -1416h-146l-332 676l-504 -676h-159z" />
    </font>
</defs>
</svg>
